# xmcd CD database file
#
# Track frame offsets:
#	150
#	24172
#	34787
#	46801
#	67851
#	83009
#	103921
#	118329
#	151286
#	169921
#	188724
#	213249
#
# Disc length: 3072 seconds
#
# Revision: 0
# Processed by: cddbd v1.5.2PL0 Copyright (c) Steve Scherf et al.
# Submitted via: CDex 1.70beta2
#
DISCID=940bfe0c
DTITLE=Various Artist - Coffee Break Jazz Vocal Premium Blend (Disc1)
DYEAR=2013
DGENRE=Jazz
TTITLE0=Let’s Face The Music And Dance
TTITLE1=(In Other Words) Fly Me To The Moon
TTITLE2=Give Him The Ooh-La-La
TTITLE3=Ordinary Day
TTITLE4=Around The World
TTITLE5=Just Friends
TTITLE6=Hit The Road Jack
TTITLE7=Shall We Dance
TTITLE8=Singin’In The Rain
TTITLE9=Tell Me All About It
TTITLE10=Maiden Voyage
TTITLE11=Music feat．畠山美由紀
EXTD=YEAR: 2013
EXTT0=
EXTT1=
EXTT2=
EXTT3=
EXTT4=
EXTT5=
EXTT6=
EXTT7=
EXTT8=
EXTT9=
EXTT10=
EXTT11=
PLAYORDER=
